<svg viewBox="0 0 28 28" fill="none" xmlns="http://www.w3.org/2000/svg"><g clip-path="url(#clip0_13082_333119)"><path d="M26.7543 19.0578C26.8713 18.7968 26.9322 18.5141 26.9329 18.228C26.9337 17.9419 26.8743 17.6589 26.7586 17.3972C26.643 17.1356 26.4736 16.9011 26.2616 16.7091C26.0495 16.5171 25.7995 16.3718 25.5276 16.2827C25.2558 16.1935 24.9683 16.1624 24.6837 16.1915C24.3991 16.2206 24.1238 16.3092 23.8756 16.4515C23.6275 16.5938 23.412 16.7866 23.2431 17.0176C23.0743 17.2485 22.9558 17.5124 22.8955 17.792C22.4282 19.1741 21.6069 20.4096 20.5135 21.3755C19.4201 22.3414 18.0927 23.004 16.6636 23.2973C15.2344 23.5906 13.7534 23.5043 12.3679 23.047C10.9825 22.5898 9.74101 21.7775 8.76717 20.6912C8.72149 20.6456 8.68525 20.5915 8.66052 20.532C8.63579 20.4724 8.62306 20.4086 8.62306 20.3441C8.62306 20.2796 8.63579 20.2157 8.66052 20.1562C8.68525 20.0966 8.72149 20.0425 8.76717 19.997L12.2788 16.4853C12.4219 16.3406 12.5195 16.1571 12.5594 15.9575C12.5993 15.7579 12.5798 15.551 12.5034 15.3624C12.4268 15.176 12.2968 15.0164 12.1297 14.9038C11.9625 14.7911 11.7658 14.7305 11.5643 14.7295H2.47884C2.2081 14.7295 1.94845 14.837 1.757 15.0285C1.56556 15.2199 1.45801 15.4796 1.45801 15.7503V24.8562C1.45901 25.0577 1.51965 25.2544 1.63229 25.4216C1.74492 25.5887 1.9045 25.7187 2.09093 25.7953C2.27494 25.8787 2.48058 25.9019 2.67854 25.8616C2.87651 25.8212 3.05669 25.7195 3.19343 25.5707L5.23509 23.5291C5.33925 23.4435 5.468 23.3934 5.60259 23.3862C5.67212 23.3845 5.74116 23.3982 5.80471 23.4265C5.86827 23.4547 5.92475 23.4968 5.97009 23.5495C7.43781 25.1167 9.28636 26.2771 11.3357 26.9177C13.3851 27.5583 15.5654 27.6572 17.6644 27.205C19.7634 26.7527 21.7094 25.7646 23.3131 24.3368C24.9168 22.9091 26.1234 21.0904 26.8155 19.0578H26.7543Z" fill="currentColor"></path><path d="M2.62204 9.37959C2.52331 9.63565 2.47722 9.90898 2.48652 10.1833C2.49582 10.4575 2.56032 10.7271 2.67616 10.9759C2.792 11.2247 2.95681 11.4476 3.16074 11.6312C3.36466 11.8148 3.60352 11.9555 3.86303 12.0448C4.12254 12.134 4.39738 12.17 4.67113 12.1506C4.94487 12.1313 5.21191 12.0569 5.45626 11.932C5.70062 11.8071 5.91729 11.6342 6.09332 11.4237C6.26935 11.2132 6.40114 10.9693 6.48079 10.7067C6.94953 9.33239 7.76768 8.10367 8.8549 7.1412C9.94211 6.17874 11.261 5.51563 12.682 5.21702C14.103 4.9184 15.5772 4.99455 16.9598 5.43799C18.3425 5.88143 19.586 6.67689 20.5683 7.74626C20.6572 7.844 20.7065 7.9714 20.7065 8.10355C20.7065 8.23571 20.6572 8.36311 20.5683 8.46084L17.1791 11.85C17.0392 11.9927 16.9443 12.1733 16.9061 12.3694C16.8678 12.5656 16.888 12.7686 16.9641 12.9534C17.0402 13.1381 17.1688 13.2965 17.3341 13.4089C17.4993 13.5212 17.6939 13.5826 17.8937 13.5854H26.9791C27.2499 13.5854 27.5095 13.4779 27.701 13.2864C27.8924 13.095 28 12.8353 28 12.5646V3.49959C27.999 3.29806 27.9383 3.10132 27.8257 2.93419C27.713 2.76706 27.5535 2.63701 27.367 2.56043C27.1811 2.48833 26.9783 2.47117 26.7828 2.51098C26.5874 2.5508 26.4075 2.64591 26.2645 2.78501L24.2229 4.82668C24.1203 4.9149 23.9906 4.96534 23.8554 4.96959C23.7862 4.96868 23.718 4.95372 23.6549 4.92565C23.5917 4.89757 23.5349 4.85695 23.4879 4.80626C22.0149 3.25012 20.1647 2.10104 18.1169 1.47049C16.069 0.83993 13.893 0.749298 11.7998 1.20738C9.70662 1.66545 7.76733 2.65669 6.17004 4.08496C4.57275 5.51322 3.37167 7.33003 2.68329 9.35918L2.62204 9.37959Z" fill="currentColor"></path></g><defs><clipPath id="clip0_13082_333119"><rect width="28" height="28" fill="currentColor"></rect></clipPath></defs></svg>
