<svg width="100%" height="100%" viewBox="0 0 38 48" fill="none" xmlns="http://www.w3.org/2000/svg"><path d="M18.5826 37.6418C13.7481 37.6418 10.9532 34.0426 10.9532 29.6186C10.9532 25.1945 13.7481 22.0452 18.5826 22.0452H21.2265C22.5107 22.0452 25.3056 21.7453 26.061 20.9954H26.1365V29.6186C26.1365 34.8674 23.4171 37.6418 18.5826 37.6418ZM18.5826 47.5397C29.3092 47.5397 37.0897 41.0911 37.0897 29.6186V0H26.1365V5.9987C26.1365 9.74789 25.079 12.1474 19.4891 12.1474H18.5826C8.83808 12.1474 0 18.296 0 29.6186C0 40.9411 7.85607 47.5397 18.5826 47.5397Z" fill="currentColor"></path></svg>
