<svg viewBox="0 0 32 32" fill="none" xmlns="http://www.w3.org/2000/svg"><path fill-rule="evenodd" clip-rule="evenodd" d="M7.99995 7.99846C7.99997 7.07186 8.26819 6.16508 8.77221 5.38756C9.27624 4.61005 9.99454 3.99503 10.8404 3.61676C11.6863 3.23849 12.6235 3.11313 13.5391 3.25582C14.4546 3.3985 15.3093 3.80313 16 4.42086C16.7942 3.70902 17.8029 3.28198 18.8668 3.20715C19.9307 3.13231 20.9892 3.41394 21.8753 4.00758C22.7613 4.60122 23.4244 5.47306 23.7599 6.48546C24.0954 7.49786 24.0842 8.59316 23.728 9.59846H25.6C26.4486 9.59846 27.2626 9.9356 27.8627 10.5357C28.4628 11.1358 28.8 11.9498 28.8 12.7985C28.8 13.6471 28.4628 14.4611 27.8627 15.0612C27.2626 15.6613 26.4486 15.9985 25.6 15.9985H17.6V14.3985C17.6 13.9741 17.4314 13.5671 17.1313 13.2671C16.8313 12.967 16.4243 12.7985 16 12.7985C15.5756 12.7985 15.1686 12.967 14.8686 13.2671C14.5685 13.5671 14.4 13.9741 14.4 14.3985V15.9985H6.39995C5.55126 15.9985 4.73733 15.6613 4.13721 15.0612C3.53709 14.4611 3.19995 13.6471 3.19995 12.7985C3.19995 11.9498 3.53709 11.1358 4.13721 10.5357C4.73733 9.9356 5.55126 9.59846 6.39995 9.59846H8.27195C8.09595 9.09766 7.99995 8.55846 7.99995 7.99846ZM14.4 9.59846V7.99846C14.4 7.68201 14.3061 7.37266 14.1303 7.10954C13.9545 6.84643 13.7046 6.64135 13.4122 6.52025C13.1199 6.39915 12.7982 6.36746 12.4878 6.4292C12.1774 6.49094 11.8923 6.64332 11.6686 6.86709C11.4448 7.09085 11.2924 7.37594 11.2307 7.68631C11.169 7.99668 11.2006 8.31839 11.3217 8.61075C11.4428 8.90311 11.6479 9.153 11.911 9.32881C12.1742 9.50462 12.4835 9.59846 12.8 9.59846H14.4ZM19.2 9.59846C19.5164 9.59846 19.8257 9.50462 20.0889 9.32881C20.352 9.153 20.5571 8.90311 20.6782 8.61075C20.7993 8.31839 20.8309 7.99668 20.7692 7.68631C20.7075 7.37594 20.5551 7.09085 20.3313 6.86709C20.1076 6.64332 19.8225 6.49094 19.5121 6.4292C19.2017 6.36746 18.88 6.39915 18.5877 6.52025C18.2953 6.64135 18.0454 6.84643 17.8696 7.10954C17.6938 7.37266 17.6 7.68201 17.6 7.99846V9.59846H19.2Z" fill="currentColor"></path><path d="M14.4 17.6016H4.80005V25.6016C4.80005 26.4503 5.13719 27.2642 5.73731 27.8643C6.33742 28.4644 7.15136 28.8016 8.00005 28.8016H14.4V17.6016ZM17.6 28.8016H24C24.8487 28.8016 25.6627 28.4644 26.2628 27.8643C26.8629 27.2642 27.2 26.4503 27.2 25.6016V17.6016H17.6V28.8016Z" fill="currentColor"></path></svg>
