<svg viewBox="0 0 24 24" fill="none" xmlns="http://www.w3.org/2000/svg"><path fill-rule="evenodd" clip-rule="evenodd" d="M2.8995 8.80039H5.2347C5.3415 6.94519 5.6943 5.23639 6.2391 3.85879C5.36191 4.39629 4.61 5.11542 4.03395 5.9678C3.45791 6.82017 3.07108 7.78603 2.8995 8.80039ZM9.9999 0.400391C7.45382 0.400391 5.01203 1.41182 3.21168 3.21217C1.41133 5.01252 0.399902 7.45431 0.399902 10.0004C0.399902 12.5465 1.41133 14.9883 3.21168 16.7886C5.01203 18.589 7.45382 19.6004 9.9999 19.6004C12.546 19.6004 14.9878 18.589 16.7881 16.7886C18.5885 14.9883 19.5999 12.5465 19.5999 10.0004C19.5999 7.45431 18.5885 5.01252 16.7881 3.21217C14.9878 1.41182 12.546 0.400391 9.9999 0.400391ZM9.9999 2.80039C9.9087 2.80039 9.7215 2.83879 9.4419 3.11479C9.1563 3.39559 8.8455 3.86239 8.5575 4.53319C8.0907 5.62159 7.7499 7.10359 7.6383 8.80039H12.3615C12.2499 7.10359 11.9091 5.62159 11.4423 4.53319C11.1543 3.86119 10.8423 3.39559 10.5579 3.11479C10.2783 2.83879 10.0911 2.80039 9.9999 2.80039ZM14.7651 8.80039C14.6583 6.94519 14.3055 5.23639 13.7607 3.85879C14.6379 4.39629 15.3898 5.11542 15.9659 5.9678C16.5419 6.82017 16.9287 7.78603 17.1003 8.80039H14.7651ZM12.3615 11.2004H7.6383C7.7499 12.8972 8.0907 14.3792 8.5575 15.4676C8.8455 16.1396 9.1575 16.6052 9.4419 16.886C9.7215 17.162 9.9087 17.2004 9.9999 17.2004C10.0911 17.2004 10.2783 17.162 10.5579 16.886C10.8435 16.6052 11.1555 16.1384 11.4423 15.4676C11.9091 14.3792 12.2499 12.8972 12.3615 11.2004ZM13.7607 16.142C14.3055 14.7656 14.6583 13.0556 14.7651 11.2004H17.1003C16.9287 12.2148 16.5419 13.1806 15.9659 14.033C15.3898 14.8854 14.6379 15.6045 13.7607 16.142ZM6.2391 16.142C5.6943 14.7644 5.3415 13.0556 5.2359 11.2004H2.8995C3.07108 12.2148 3.45791 13.1806 4.03395 14.033C4.61 14.8854 5.36191 15.6045 6.2391 16.142Z" fill="currentColor"></path></svg>
