<svg width="20" height="21" viewBox="0 0 20 21" fill="currentColor" xmlns="http://www.w3.org/2000/svg"><path fill-rule="evenodd" clip-rule="evenodd" d="M19.6004 10.5C19.6004 13.0461 18.589 15.4879 16.7886 17.2882C14.9883 19.0886 12.5465 20.1 10.0004 20.1C7.45431 20.1 5.01252 19.0886 3.21217 17.2882C1.41182 15.4879 0.400391 13.0461 0.400391 10.5C0.400391 7.95395 1.41182 5.51215 3.21217 3.7118C5.01252 1.91145 7.45431 0.900024 10.0004 0.900024C12.5465 0.900024 14.9883 1.91145 16.7886 3.7118C18.589 5.51215 19.6004 7.95395 19.6004 10.5ZM11.2004 5.70002C11.2004 6.01828 11.074 6.32351 10.8489 6.54855C10.6239 6.7736 10.3187 6.90002 10.0004 6.90002C9.68213 6.90002 9.37691 6.7736 9.15186 6.54855C8.92682 6.32351 8.80039 6.01828 8.80039 5.70002C8.80039 5.38176 8.92682 5.07654 9.15186 4.8515C9.37691 4.62645 9.68213 4.50002 10.0004 4.50002C10.3187 4.50002 10.6239 4.62645 10.8489 4.8515C11.074 5.07654 11.2004 5.38176 11.2004 5.70002ZM8.80039 9.30002C8.48213 9.30002 8.17691 9.42645 7.95186 9.6515C7.72682 9.87654 7.60039 10.1818 7.60039 10.5C7.60039 10.8183 7.72682 11.1235 7.95186 11.3486C8.17691 11.5736 8.48213 11.7 8.80039 11.7V15.3C8.80039 15.6183 8.92682 15.9235 9.15186 16.1486C9.37691 16.3736 9.68213 16.5 10.0004 16.5H11.2004C11.5187 16.5 11.8239 16.3736 12.0489 16.1486C12.274 15.9235 12.4004 15.6183 12.4004 15.3C12.4004 14.9818 12.274 14.6765 12.0489 14.4515C11.8239 14.2265 11.5187 14.1 11.2004 14.1V10.5C11.2004 10.1818 11.074 9.87654 10.8489 9.6515C10.6239 9.42645 10.3187 9.30002 10.0004 9.30002H8.80039Z"></path></svg>
