<svg width="28" height="28" viewBox="0 0 28 28" fill="none" xmlns="http://www.w3.org/2000/svg"><g clip-path="url(#clip0_13082_333119)"><path d="M12.7335 28.0055L13.5525 23.957C13.6417 23.5433 13.8548 23.166 14.164 22.8745L22.4848 14.6259C23.2161 13.8731 24.1974 13.4079 25.2475 13.3161C25.3216 13.3147 25.3947 13.2987 25.4624 13.269C25.5302 13.2393 25.5913 13.1964 25.6421 13.143C25.693 13.0896 25.7326 13.0266 25.7586 12.9578C25.7846 12.889 25.7964 12.8158 25.7935 12.7424V9.49494C25.8038 8.98845 25.6346 8.49441 25.3154 8.09883C24.9962 7.70325 24.5471 7.43117 24.0464 7.32996C23.923 7.305 23.8122 7.23858 23.7326 7.14192C23.653 7.04526 23.6095 6.92431 23.6096 6.79954V5.16498C23.6096 4.59079 23.3795 4.04012 22.9699 3.63411C22.5603 3.2281 22.0048 3 21.4256 3H7.77593C6.9071 3 6.07385 3.34214 5.4595 3.95116C4.84514 4.56018 4.5 5.38619 4.5 6.24747V25.7323C4.5 26.5936 4.84514 27.4196 5.4595 28.0286C6.07385 28.6376 6.9071 28.9797 7.77593 28.9797H12.1438C12.2154 28.9806 12.2864 28.9666 12.3523 28.9386C12.4181 28.9107 12.4773 28.8694 12.526 28.8174C12.6279 28.7168 12.6866 28.581 12.6898 28.4385C12.688 28.293 12.7027 28.1478 12.7335 28.0055ZM6.68395 6.24747C6.68395 5.96037 6.799 5.68504 7.00378 5.48203C7.20857 5.27903 7.48632 5.16498 7.77593 5.16498H21.1526C21.225 5.16498 21.2945 5.19349 21.3457 5.24424C21.3969 5.29499 21.4256 5.36383 21.4256 5.4356V7.05934C21.4256 7.13111 21.3969 7.19994 21.3457 7.25069C21.2945 7.30145 21.225 7.32996 21.1526 7.32996H7.77593C7.48632 7.32996 7.20857 7.21591 7.00378 7.0129C6.799 6.8099 6.68395 6.53456 6.68395 6.24747Z" fill="currentColor"></path><path d="M15.0266 28.9797L18.4118 28.0272C18.503 27.9986 18.5857 27.948 18.6524 27.88C18.7191 27.812 18.7677 27.7287 18.794 27.6375C18.8156 27.5451 18.8129 27.4488 18.7862 27.3578C18.7594 27.2668 18.7094 27.1842 18.6411 27.1179L16.2278 24.7256C16.1617 24.6569 16.078 24.6075 15.9856 24.5827C15.8932 24.5579 15.7957 24.5586 15.7037 24.5848C15.6121 24.6056 15.528 24.6509 15.4606 24.7158C15.3932 24.7807 15.3451 24.8627 15.3215 24.9529L14.3278 28.287C14.3004 28.3798 14.2992 28.4783 14.3242 28.5718C14.3492 28.6653 14.3995 28.7502 14.4697 28.8174C14.5378 28.8936 14.6261 28.9493 14.7246 28.978C14.8231 29.0067 14.9278 29.0073 15.0266 28.9797Z" fill="currentColor"></path><path d="M16.5663 22.7446C16.4656 22.8476 16.4093 22.9854 16.4093 23.1289C16.4093 23.2723 16.4656 23.4102 16.5663 23.5132L19.8423 26.7606C19.95 26.8575 20.09 26.9114 20.2354 26.9122C20.3774 26.9108 20.5138 26.8568 20.6176 26.7606L26.0774 21.3482C26.1286 21.2979 26.1692 21.238 26.1969 21.1721C26.2247 21.1061 26.2389 21.0354 26.2389 20.9639C26.2389 20.8925 26.2247 20.8217 26.1969 20.7558C26.1692 20.6898 26.1286 20.6299 26.0774 20.5796L22.8015 17.3322C22.7525 17.2804 22.6933 17.2391 22.6275 17.2109C22.5618 17.1827 22.4909 17.1681 22.4193 17.1681C22.3477 17.1681 22.2768 17.1827 22.2111 17.2109C22.1453 17.2391 22.0861 17.2804 22.0371 17.3322L16.5663 22.7446Z" fill="currentColor"></path><path d="M23.4239 16.1739C23.4271 16.3164 23.4858 16.4522 23.5877 16.5528L26.8637 19.8002C26.9196 19.8503 26.9852 19.8886 27.0566 19.9128C27.1279 19.937 27.2034 19.9466 27.2786 19.941C27.4313 19.93 27.5748 19.8647 27.6826 19.7569C28.2141 19.2186 28.508 18.4931 28.4998 17.74C28.4916 16.9868 28.182 16.2677 27.639 15.7409C27.0959 15.2141 26.364 14.9227 25.6043 14.9308C24.8445 14.9389 24.1192 15.2459 23.5877 15.7842C23.4869 15.8899 23.4287 16.0285 23.4239 16.1739Z" fill="currentColor"></path></g></svg>
