<svg width="24px" height="24px" fill="none" xmlns="http://www.w3.org/2000/svg"><path fill-rule="evenodd" clip-rule="evenodd" d="M14.086 4.08616C14.2705 3.89514 14.4912 3.74278 14.7352 3.63796C14.9792 3.53314 15.2416 3.47797 15.5072 3.47566C15.7728 3.47335 16.0361 3.52396 16.2819 3.62452C16.5277 3.72508 16.751 3.87359 16.9388 4.06137C17.1266 4.24916 17.2751 4.47246 17.3756 4.71825C17.4762 4.96405 17.5268 5.22741 17.5245 5.49296C17.5222 5.75852 17.467 6.02096 17.3622 6.26497C17.2574 6.50898 17.105 6.72967 16.914 6.91416L16.121 7.70716L13.293 4.87916L14.086 4.08616ZM11.879 6.29316L3.5 14.6722V17.5002H6.328L14.708 9.12116L11.878 6.29316H11.879Z" fill="currentColor"></path></svg>
