<svg width="10" height="16" viewBox="0 0 10 16" fill="none" xmlns="http://www.w3.org/2000/svg"><path d="M4.77719 16C5.27094 16 5.74447 15.8041 6.09361 15.4554C6.44275 15.1067 6.63889 14.6338 6.63889 14.1406C6.63889 13.6475 6.44275 13.1745 6.09361 12.8258C5.74447 12.4771 5.27094 12.2812 4.77719 12.2812C4.28344 12.2812 3.8099 12.4771 3.46077 12.8258C3.11163 13.1745 2.91549 13.6475 2.91549 14.1406C2.91549 14.6338 3.11163 15.1067 3.46077 15.4554C3.8099 15.8041 4.28344 16 4.77719 16Z" fill="currentColor"></path><path d="M3.69039 3.02683C4.0192 2.85266 4.39033 2.76199 4.76669 2.76233C5.3339 2.7624 5.88268 2.96914 6.29123 3.34438C6.70075 3.72052 6.93647 4.23667 6.93647 4.78111C6.93647 5.32555 6.70075 5.8417 6.29123 6.21783C5.88261 6.59314 5.33371 6.79988 4.7664 6.79988C4.35193 6.79988 3.95925 6.95136 3.67364 7.21368C3.38893 7.47518 3.23464 7.82385 3.23464 8.18116V9.88119C3.23464 10.2385 3.38893 10.5872 3.67364 10.8487C3.95925 11.111 4.35193 11.2625 4.7664 11.2625C5.18088 11.2625 5.57356 11.111 5.85916 10.8487C6.14387 10.5872 6.29817 10.2385 6.29817 9.88119V9.3607L6.51857 9.28907C7.54326 8.95607 8.42584 8.34091 9.04765 7.53278C9.66911 6.72509 10.0003 5.76367 10 4.78112C9.99995 3.73575 9.62455 2.71616 8.92658 1.88073C8.22817 1.04478 7.24516 0.439665 6.12722 0.16453C5.00917 -0.110631 3.82341 -0.0390706 2.7552 0.367294C1.68717 0.773589 0.800367 1.49014 0.228012 2.40056L0.222529 2.40899C0.116927 2.56577 0.0476364 2.73892 0.0174049 2.91805C-0.0128175 3.09712 -0.00363941 3.27994 0.0446174 3.45612C0.0928953 3.63239 0.179657 3.79965 0.301256 3.94758C0.422918 4.09558 0.57708 4.2213 0.755621 4.31603C0.934198 4.41079 1.13284 4.47223 1.33977 4.49584C1.5467 4.51946 1.75658 4.50463 1.95664 4.45247C2.15669 4.4003 2.34183 4.31215 2.50142 4.19437C2.66097 4.07662 2.79136 3.93199 2.88621 3.77011L2.89136 3.76161C3.08499 3.45358 3.36148 3.20105 3.69039 3.02683Z" fill="currentColor"></path></svg>
