<svg width="1920" height="1080" viewBox="0 0 1920 1080" fill="none" xmlns="http://www.w3.org/2000/svg">
<g clip-path="url(#clip0_163_2327)">
<rect width="1920" height="1080" fill="#FF92B9"/>
<path fill-rule="evenodd" clip-rule="evenodd" d="M1329.97 1080H1920V-0.00012207L1722.98 -0.00012207C1479.44 208.231 1321.19 523.681 1321.19 914.755C1321.19 971.758 1324.14 1026.86 1329.97 1080ZM952.801 1080C1107.64 966.573 1204.71 800.216 1204.71 565.292C1204.71 326.018 1098.64 137.587 938.279 -0.000122062L0 -0.00012207V302.81C35.0414 296.653 72.5645 293.487 112.632 293.487C350.462 293.487 525.193 409.975 525.193 555.585C525.193 642.95 452.389 759.438 44.6814 759.438C29.8683 759.438 14.9701 759.127 0 758.531V1080H952.801Z" fill="#FFC400"/>
</g>
<defs>
<clipPath id="clip0_163_2327">
<rect width="1920" height="1080" fill="white"/>
</clipPath>
</defs>
</svg>
