<svg xmlns="http://www.w3.org/2000/svg" width="30" height="24" viewBox="0 0 30 24" fill="none">
  <mask id="mask0_16115_261050" style="mask-type:luminance" maskUnits="userSpaceOnUse" x="0" y="0" width="30" height="24">
    <path d="M0 0.75H30V23.25H0V0.75Z" fill="white"/>
  </mask>
  <g mask="url(#mask0_16115_261050)">
    <path fill-rule="evenodd" clip-rule="evenodd" d="M0 0.75H30V23.25H0V0.75Z" fill="#F7FCFF"/>
    <path fill-rule="evenodd" clip-rule="evenodd" d="M0 14.4996V16.3746H30V14.4996H0Z" fill="#E31D1C"/>
    <path fill-rule="evenodd" clip-rule="evenodd" d="M0 17.9374V19.8124H30V17.9374H0Z" fill="#E31D1C"/>
    <path fill-rule="evenodd" clip-rule="evenodd" d="M0 7.62458V9.49958H30V7.62458H0Z" fill="#E31D1C"/>
    <path fill-rule="evenodd" clip-rule="evenodd" d="M0 21.3749V23.2499H30V21.3749H0Z" fill="#E31D1C"/>
    <path fill-rule="evenodd" clip-rule="evenodd" d="M0 11.0624V12.9374H30V11.0624H0Z" fill="#E31D1C"/>
    <path fill-rule="evenodd" clip-rule="evenodd" d="M0 0.75V2.625H30V0.75H0Z" fill="#E31D1C"/>
    <path fill-rule="evenodd" clip-rule="evenodd" d="M0 4.18765V6.06265H30V4.18765H0Z" fill="#E31D1C"/>
    <path d="M0 0.75H18.75V12.9375H0V0.75Z" fill="#2E42A5"/>
    <path fill-rule="evenodd" clip-rule="evenodd" d="M1.61451 3.50492L0.933999 3.982L1.16375 3.13299L0.559326 2.59495H1.34878L1.61356 1.90207L1.92403 2.59495H2.59702L2.06824 3.13299L2.27295 3.982L1.61451 3.50492ZM5.36451 3.50492L4.684 3.982L4.91374 3.13299L4.30933 2.59495H5.09878L5.36356 1.90207L5.67403 2.59495H6.34702L5.81824 3.13299L6.02295 3.982L5.36451 3.50492ZM8.434 3.982L9.11451 3.50492L9.77295 3.982L9.5682 3.13299L10.097 2.59495H9.42401L9.11356 1.90207L8.84878 2.59495H8.05933L8.66374 3.13299L8.434 3.982ZM12.8645 3.50492L12.184 3.982L12.4138 3.13299L11.8093 2.59495H12.5988L12.8636 1.90207L13.174 2.59495H13.847L13.3182 3.13299L13.5229 3.982L12.8645 3.50492ZM0.933999 7.732L1.61451 7.25492L2.27295 7.732L2.06824 6.88299L2.59702 6.34495H1.92403L1.61356 5.65207L1.34878 6.34495H0.559326L1.16375 6.88299L0.933999 7.732ZM5.36451 7.25492L4.684 7.732L4.91374 6.88299L4.30933 6.34495H5.09878L5.36356 5.65207L5.67403 6.34495H6.34702L5.81824 6.88299L6.02295 7.732L5.36451 7.25492ZM8.434 7.732L9.11451 7.25492L9.77295 7.732L9.5682 6.88299L10.097 6.34495H9.42401L9.11356 5.65207L8.84878 6.34495H8.05933L8.66374 6.88299L8.434 7.732ZM12.8645 7.25492L12.184 7.732L12.4138 6.88299L11.8093 6.34495H12.5988L12.8636 5.65207L13.174 6.34495H13.847L13.3182 6.88299L13.5229 7.732L12.8645 7.25492ZM0.933999 11.482L1.61451 11.0049L2.27295 11.482L2.06824 10.633L2.59702 10.0949H1.92403L1.61356 9.40207L1.34878 10.0949H0.559326L1.16375 10.633L0.933999 11.482ZM5.36451 11.0049L4.684 11.482L4.91374 10.633L4.30933 10.0949H5.09878L5.36356 9.40207L5.67403 10.0949H6.34702L5.81824 10.633L6.02295 11.482L5.36451 11.0049ZM8.434 11.482L9.11451 11.0049L9.77295 11.482L9.5682 10.633L10.097 10.0949H9.42401L9.11356 9.40207L8.84878 10.0949H8.05933L8.66374 10.633L8.434 11.482ZM12.8645 11.0049L12.184 11.482L12.4138 10.633L11.8093 10.0949H12.5988L12.8636 9.40207L13.174 10.0949H13.847L13.3182 10.633L13.5229 11.482L12.8645 11.0049ZM15.934 3.982L16.6145 3.50492L17.2729 3.982L17.0682 3.13299L17.597 2.59495H16.924L16.6136 1.90207L16.3488 2.59495H15.5593L16.1638 3.13299L15.934 3.982ZM16.6145 7.25492L15.934 7.732L16.1638 6.88299L15.5593 6.34495H16.3488L16.6136 5.65207L16.924 6.34495H17.597L17.0682 6.88299L17.2729 7.732L16.6145 7.25492ZM15.934 11.482L16.6145 11.0049L17.2729 11.482L17.0682 10.633L17.597 10.0949H16.924L16.6136 9.40207L16.3488 10.0949H15.5593L16.1638 10.633L15.934 11.482ZM3.48951 5.37992L2.809 5.857L3.03875 5.00799L2.43433 4.46995H3.22378L3.48856 3.77707L3.79903 4.46995H4.47202L3.94324 5.00799L4.14795 5.857L3.48951 5.37992ZM6.559 5.857L7.23951 5.37992L7.89795 5.857L7.69324 5.00799L8.22202 4.46995H7.54903L7.23856 3.77707L6.97378 4.46995H6.18433L6.78874 5.00799L6.559 5.857ZM10.9895 5.37992L10.309 5.857L10.5388 5.00799L9.93429 4.46995H10.7238L10.9886 3.77707L11.299 4.46995H11.972L11.4432 5.00799L11.6479 5.857L10.9895 5.37992ZM2.809 9.607L3.48951 9.12992L4.14795 9.607L3.94324 8.75799L4.47202 8.21995H3.79903L3.48856 7.52707L3.22378 8.21995H2.43433L3.03875 8.75799L2.809 9.607ZM7.23951 9.12992L6.559 9.607L6.78874 8.75799L6.18433 8.21995H6.97378L7.23856 7.52707L7.54903 8.21995H8.22202L7.69324 8.75799L7.89795 9.607L7.23951 9.12992ZM10.309 9.607L10.9895 9.12992L11.6479 9.607L11.4432 8.75799L11.972 8.21995H11.299L10.9886 7.52707L10.7238 8.21995H9.93429L10.5388 8.75799L10.309 9.607ZM14.7395 5.37992L14.059 5.857L14.2888 5.00799L13.6843 4.46995H14.4738L14.7386 3.77707L15.049 4.46995H15.722L15.1932 5.00799L15.3979 5.857L14.7395 5.37992ZM14.059 9.607L14.7395 9.12992L15.3979 9.607L15.1932 8.75799L15.722 8.21995H15.049L14.7386 7.52707L14.4738 8.21995H13.6843L14.2888 8.75799L14.059 9.607Z" fill="#F7FCFF"/>
  </g>
</svg>