<svg xmlns="http://www.w3.org/2000/svg" width="24" height="24" viewBox="0 0 24 24" fill="none">
  <path d="M22.4996 12.4999C22.4967 11.9164 22.3189 11.3473 21.9891 10.8659C21.6593 10.3846 21.1927 10.0133 20.6496 9.79989C20.5994 9.77432 20.5586 9.73347 20.533 9.68323C20.5121 9.63251 20.5121 9.57561 20.533 9.52489C20.7529 9.01715 20.8505 8.46486 20.8179 7.9125C20.7853 7.36014 20.6234 6.82316 20.3453 6.3448C20.0672 5.86644 19.6807 5.46009 19.2168 5.15846C18.7529 4.85683 18.2247 4.66836 17.6746 4.60823C17.628 4.59779 17.5859 4.57278 17.5545 4.53682C17.523 4.50087 17.5038 4.45583 17.4996 4.40823C17.4629 3.94582 17.273 3.50889 16.9598 3.16668C16.6467 2.82447 16.2283 2.59656 15.7709 2.51906C15.3136 2.44156 14.8435 2.51891 14.435 2.73885C14.0266 2.95878 13.7033 3.30873 13.5163 3.73323C13.4993 3.78044 13.4645 3.8191 13.4193 3.84091C13.3741 3.86272 13.3222 3.86595 13.2746 3.84989C12.7722 3.71669 12.2437 3.71669 11.7413 3.84989C11.6938 3.86595 11.6418 3.86272 11.5967 3.84091C11.5515 3.8191 11.5166 3.78044 11.4996 3.73323C11.3177 3.30006 10.9948 2.94109 10.5831 2.71461C10.1715 2.48812 9.69542 2.40741 9.23216 2.48559C8.76889 2.56377 8.34565 2.79623 8.03114 3.14525C7.71664 3.49427 7.52934 3.93935 7.49965 4.40823C7.49459 4.45817 7.47297 4.50498 7.43824 4.54122C7.40351 4.57746 7.35766 4.60105 7.30798 4.60823C6.75794 4.66836 6.22971 4.85683 5.76583 5.15846C5.30195 5.46009 4.9154 5.86644 4.6373 6.3448C4.35921 6.82316 4.19734 7.36014 4.16475 7.9125C4.13216 8.46486 4.22974 9.01715 4.44965 9.52489C4.47049 9.57561 4.47049 9.63251 4.44965 9.68323C4.42407 9.73347 4.38323 9.77432 4.33298 9.79989C3.78675 10.0093 3.31689 10.3795 2.98544 10.8616C2.654 11.3436 2.47656 11.9149 2.47656 12.4999C2.47656 13.0849 2.654 13.6561 2.98544 14.1382C3.31689 14.6203 3.78675 14.9905 4.33298 15.1999C4.38323 15.2255 4.42407 15.2663 4.44965 15.3166C4.47049 15.3673 4.47049 15.4242 4.44965 15.4749C4.22974 15.9826 4.13216 16.5349 4.16475 17.0873C4.19734 17.6396 4.35921 18.1766 4.6373 18.655C4.9154 19.1333 5.30195 19.5397 5.76583 19.8413C6.22971 20.143 6.75794 20.3314 7.30798 20.3916C7.35766 20.3987 7.40351 20.4223 7.43824 20.4586C7.47297 20.4948 7.49459 20.5416 7.49965 20.5916C7.53636 21.0205 7.70506 21.4276 7.98257 21.7568C8.26008 22.0859 8.63275 22.321 9.04934 22.4298C9.46592 22.5385 9.90596 22.5155 10.3089 22.3639C10.7119 22.2123 11.058 21.9396 11.2996 21.5832C11.3261 21.5459 11.3641 21.5184 11.4078 21.5048C11.4515 21.4913 11.4984 21.4925 11.5413 21.5082C12.1575 21.7165 12.8251 21.7165 13.4413 21.5082C13.4842 21.4925 13.5312 21.4913 13.5748 21.5048C13.6185 21.5184 13.6565 21.5459 13.683 21.5832C13.9223 21.9461 14.2692 22.2251 14.675 22.381C15.0808 22.5369 15.5253 22.5619 15.946 22.4526C16.3668 22.3433 16.7428 22.105 17.0214 21.7713C17.3 21.4376 17.4672 21.0251 17.4996 20.5916C17.5032 20.5411 17.5243 20.4935 17.5593 20.4569C17.5944 20.4204 17.641 20.3973 17.6913 20.3916C18.2414 20.3314 18.7696 20.143 19.2335 19.8413C19.6973 19.5397 20.0839 19.1333 20.362 18.655C20.6401 18.1766 20.802 17.6396 20.8345 17.0873C20.8671 16.5349 20.7696 15.9826 20.5496 15.4749C20.5288 15.4242 20.5288 15.3673 20.5496 15.3166C20.5752 15.2663 20.6161 15.2255 20.6663 15.1999C21.2062 14.9839 21.6693 14.6114 21.996 14.1303C22.3226 13.6492 22.4981 13.0814 22.4996 12.4999ZM17.4996 16.6666H14.9996C14.8884 16.8879 14.72 17.0756 14.5119 17.2102C14.3039 17.3447 14.0637 17.4213 13.8161 17.4319C13.5686 17.4426 13.3227 17.387 13.1038 17.2708C12.885 17.1547 12.7011 16.9822 12.5712 16.7712C12.4413 16.5602 12.37 16.3184 12.3649 16.0706C12.3597 15.8229 12.4207 15.5783 12.5417 15.3621C12.6627 15.1458 12.8392 14.9658 13.053 14.8406C13.2668 14.7154 13.5102 14.6496 13.758 14.6499C14.0156 14.6502 14.2681 14.7221 14.4874 14.8574C14.7066 14.9928 14.8839 15.1864 14.9996 15.4166H17.4996C17.6654 15.4166 17.8244 15.4824 17.9416 15.5996C18.0588 15.7168 18.1246 15.8758 18.1246 16.0416C18.1246 16.2073 18.0588 16.3663 17.9416 16.4835C17.8244 16.6007 17.6654 16.6666 17.4996 16.6666ZM11.0413 9.99989C10.8034 9.99991 10.5695 9.93857 10.3622 9.82179C10.1549 9.705 9.98124 9.53673 9.85798 9.33323C9.8386 9.3041 9.81268 9.27989 9.78231 9.26254C9.75193 9.24518 9.71792 9.23514 9.68298 9.23323H7.29132C7.12556 9.23323 6.96658 9.16738 6.84937 9.05017C6.73216 8.93296 6.66632 8.77399 6.66632 8.60823C6.66632 8.44247 6.73216 8.2835 6.84937 8.16629C6.96658 8.04908 7.12556 7.98323 7.29132 7.98323H9.68298C9.71733 7.98291 9.75111 7.97444 9.78154 7.9585C9.81196 7.94256 9.83817 7.91962 9.85798 7.89156C9.98347 7.68269 10.1616 7.51043 10.3746 7.392C10.5875 7.27358 10.8278 7.21315 11.0715 7.21675C11.3151 7.22035 11.5535 7.28785 11.7629 7.41252C11.9723 7.53718 12.1452 7.71463 12.2645 7.92712C12.3838 8.13961 12.4451 8.37968 12.4425 8.62334C12.4399 8.86699 12.3733 9.10568 12.2494 9.31554C12.1256 9.52539 11.9488 9.69905 11.7368 9.81915C11.5248 9.93925 11.285 10.0016 11.0413 9.99989ZM9.99965 17.0832C9.99965 17.249 9.9338 17.408 9.81659 17.5252C9.69938 17.6424 9.54041 17.7082 9.37465 17.7082C9.20889 17.7082 9.04992 17.6424 8.93271 17.5252C8.8155 17.408 8.74965 17.249 8.74965 17.0832V14.8999C8.74774 14.865 8.7377 14.8309 8.72034 14.8006C8.70298 14.7702 8.67878 14.7443 8.64965 14.7249C8.39063 14.5668 8.19038 14.3284 8.0794 14.046C7.96841 13.7635 7.95279 13.4526 8.03489 13.1604C8.117 12.8683 8.29234 12.611 8.5342 12.4278C8.77606 12.2445 9.0712 12.1453 9.37465 12.1453C9.6781 12.1453 9.97323 12.2445 10.2151 12.4278C10.457 12.611 10.6323 12.8683 10.7144 13.1604C10.7965 13.4526 10.7809 13.7635 10.6699 14.046C10.5589 14.3284 10.3587 14.5668 10.0996 14.7249C10.0705 14.7443 10.0463 14.7702 10.029 14.8006C10.0116 14.8309 10.0016 14.865 9.99965 14.8999V17.0832ZM17.0163 8.54156C17.0163 8.77948 16.955 9.01339 16.8382 9.22068C16.7214 9.42797 16.5532 9.60163 16.3496 9.72489C16.3205 9.74428 16.2963 9.77019 16.279 9.80057C16.2616 9.83095 16.2516 9.86496 16.2496 9.89989V12.4999C16.2496 12.6657 16.1838 12.8246 16.0666 12.9418C15.9494 13.059 15.7904 13.1249 15.6246 13.1249C15.4589 13.1249 15.2999 13.059 15.1827 12.9418C15.0655 12.8246 14.9996 12.6657 14.9996 12.4999V9.89989C14.9977 9.86496 14.9877 9.83095 14.9703 9.80057C14.953 9.77019 14.9288 9.74428 14.8996 9.72489C14.6922 9.59828 14.5215 9.41954 14.4046 9.20646C14.2877 8.99339 14.2286 8.75341 14.2332 8.51041C14.2379 8.26741 14.3061 8.02986 14.4311 7.82141C14.556 7.61296 14.7334 7.44087 14.9456 7.32227C15.1577 7.20367 15.3972 7.1427 15.6402 7.14542C15.8833 7.14814 16.1213 7.21446 16.3308 7.33777C16.5402 7.46109 16.7137 7.63711 16.834 7.84831C16.9542 8.0595 17.0171 8.29852 17.0163 8.54156Z" fill="#481453"/>
</svg>