<svg xmlns="http://www.w3.org/2000/svg" width="24" height="24" viewBox="0 0 24 24" fill="none">
  <path d="M17.9085 2.03333C17.0365 2.04233 16.1912 2.33483 15.5001 2.86667C15.4537 2.90302 15.4151 2.94829 15.3865 2.99982C15.3578 3.05134 15.3398 3.10807 15.3335 3.16667C15.3278 3.22681 15.3362 3.28744 15.3579 3.34382C15.3795 3.4002 15.414 3.4508 15.4585 3.49167L17.4418 5.48333L16.3751 6.375C15.1046 5.44843 13.5727 4.94917 12.0001 4.94917C10.4276 4.94917 8.89569 5.44843 7.62514 6.375L6.55847 5.45L8.5418 3.49167C8.5913 3.44743 8.62874 3.39133 8.6506 3.32865C8.67247 3.26597 8.67804 3.19876 8.6668 3.13333C8.66246 3.07423 8.6453 3.01678 8.61652 2.96497C8.58774 2.91317 8.54802 2.86825 8.50014 2.83333C7.8091 2.3015 6.96375 2.009 6.0918 2C5.55166 1.99998 5.01686 2.10691 4.51825 2.31462C4.01964 2.52232 3.56709 2.8267 3.18671 3.21018C2.80632 3.59367 2.50563 4.04867 2.30198 4.54895C2.09832 5.04923 1.99574 5.58488 2.00014 6.125C2.00913 6.99695 2.30164 7.84229 2.83347 8.53333C2.86838 8.58122 2.9133 8.62093 2.96511 8.64971C3.01692 8.67849 3.07437 8.69565 3.13347 8.7C3.18812 8.70067 3.2423 8.68989 3.29253 8.66836C3.34276 8.64683 3.38793 8.61503 3.42514 8.575L5.37514 6.625L6.38347 7.45833C5.727 8.21 5.22714 9.08512 4.91318 10.0324C4.59923 10.9797 4.47749 11.9802 4.5551 12.9751C4.63271 13.9701 4.9081 14.9395 5.36515 15.8267C5.8222 16.7139 6.45171 17.5009 7.2168 18.1417L5.15847 20.1583C5.08036 20.2358 5.01837 20.328 4.97606 20.4295C4.93375 20.5311 4.91197 20.64 4.91197 20.75C4.91197 20.86 4.93375 20.9689 4.97606 21.0705C5.01837 21.172 5.08036 21.2642 5.15847 21.3417C5.23594 21.4198 5.32811 21.4818 5.42966 21.5241C5.5312 21.5664 5.64013 21.5882 5.75014 21.5882C5.86015 21.5882 5.96907 21.5664 6.07062 21.5241C6.17217 21.4818 6.26433 21.4198 6.3418 21.3417L8.5918 19.0917C9.64605 19.6341 10.8145 19.917 12.0001 19.917C13.1857 19.917 14.3542 19.6341 15.4085 19.0917L17.6585 21.3417C17.7359 21.4198 17.8281 21.4818 17.9297 21.5241C18.0312 21.5664 18.1401 21.5882 18.2501 21.5882C18.3601 21.5882 18.4691 21.5664 18.5706 21.5241C18.6722 21.4818 18.7643 21.4198 18.8418 21.3417C18.9199 21.2642 18.9819 21.172 19.0242 21.0705C19.0665 20.9689 19.0883 20.86 19.0883 20.75C19.0883 20.64 19.0665 20.5311 19.0242 20.4295C18.9819 20.328 18.9199 20.2358 18.8418 20.1583L16.8251 18.15C17.5872 17.5063 18.2133 16.717 18.6666 15.8283C19.1199 14.9397 19.3913 13.9695 19.4651 12.9746C19.5388 11.9798 19.4133 10.9802 19.0959 10.0344C18.7786 9.08864 18.2757 8.21569 17.6168 7.46667L18.6251 6.63333L20.5751 8.575C20.6123 8.61503 20.6575 8.64683 20.7077 8.66836C20.758 8.68989 20.8122 8.70067 20.8668 8.7C20.9259 8.69565 20.9834 8.67849 21.0352 8.64971C21.087 8.62093 21.1319 8.58122 21.1668 8.53333C21.6986 7.84229 21.9911 6.99695 22.0001 6.125C22.0001 5.03982 21.569 3.99909 20.8017 3.23175C20.0344 2.46442 18.9936 2.03333 17.9085 2.03333ZM14.9168 13.075H12.0001C11.835 13.0728 11.6773 13.0063 11.5606 12.8896C11.4438 12.7728 11.3773 12.6151 11.3751 12.45V7.86667C11.3751 7.70091 11.441 7.54193 11.5582 7.42472C11.6754 7.30751 11.8344 7.24167 12.0001 7.24167C12.1659 7.24167 12.3249 7.30751 12.4421 7.42472C12.5593 7.54193 12.6251 7.70091 12.6251 7.86667V11.825H14.9168C15.0826 11.825 15.2415 11.8908 15.3587 12.0081C15.476 12.1253 15.5418 12.2842 15.5418 12.45C15.5418 12.6158 15.476 12.7747 15.3587 12.8919C15.2415 13.0092 15.0826 13.075 14.9168 13.075Z" fill="#877997"/>
</svg>