<svg xmlns="http://www.w3.org/2000/svg" width="24" height="24" viewBox="0 0 24 24" fill="none">
  <path d="M21.5088 3.1403C21.4489 2.99588 21.3612 2.86461 21.2508 2.7539L21.246 2.7491C21.0214 2.52518 20.7171 2.39958 20.4 2.3999H15.6C15.2817 2.3999 14.9765 2.52633 14.7514 2.75137C14.5264 2.97642 14.4 3.28164 14.4 3.5999C14.4 3.91816 14.5264 4.22339 14.7514 4.44843C14.9765 4.67347 15.2817 4.7999 15.6 4.7999H17.5032L13.5516 8.7515C13.333 8.97783 13.212 9.28095 13.2148 9.59558C13.2175 9.91022 13.3437 10.2112 13.5662 10.4337C13.7887 10.6562 14.0897 10.7824 14.4043 10.7851C14.7189 10.7878 15.0221 10.6669 15.2484 10.4483L19.2 6.4967V8.3999C19.2 8.71816 19.3264 9.02339 19.5514 9.24843C19.7765 9.47347 20.0817 9.5999 20.4 9.5999C20.7182 9.5999 21.0235 9.47347 21.2485 9.24843C21.4735 9.02339 21.6 8.71816 21.6 8.3999V3.5999C21.6002 3.44219 21.5692 3.28599 21.5088 3.1403Z" fill="#481453"/>
  <path d="M2.40002 3.5999C2.40002 3.28164 2.52645 2.97642 2.7515 2.75137C2.97654 2.52633 3.28176 2.3999 3.60002 2.3999H6.18362C6.46767 2.40003 6.74246 2.50092 6.95912 2.68461C7.17577 2.86831 7.32024 3.1229 7.36682 3.4031L8.25482 8.7251C8.29726 8.97856 8.25719 9.23895 8.14054 9.46794C8.02389 9.69693 7.8368 9.88242 7.60682 9.9971L5.74922 10.9247C6.41535 12.5755 7.40742 14.075 8.66616 15.3338C9.92489 16.5925 11.4244 17.5846 13.0752 18.2507L14.004 16.3931C14.1187 16.1633 14.3039 15.9764 14.5327 15.8598C14.7614 15.7431 15.0215 15.7029 15.2748 15.7451L20.5968 16.6331C20.877 16.6797 21.1316 16.8242 21.3153 17.0408C21.499 17.2575 21.5999 17.5323 21.6 17.8163V20.3999C21.6 20.7182 21.4736 21.0234 21.2486 21.2484C21.0235 21.4735 20.7183 21.5999 20.4 21.5999H18C9.38403 21.5999 2.40002 14.6159 2.40002 5.9999V3.5999Z" fill="#481453"/>
</svg>