<svg xmlns="http://www.w3.org/2000/svg" width="24" height="24" viewBox="0 0 24 24" fill="none">
  <path d="M7.41667 20.3333H3.875C3.81975 20.3333 3.76676 20.3114 3.72769 20.2723C3.68862 20.2332 3.66667 20.1803 3.66667 20.125V16.5833C3.66667 16.3623 3.57887 16.1504 3.42259 15.9941C3.26631 15.8378 3.05435 15.75 2.83333 15.75C2.61232 15.75 2.40036 15.8378 2.24408 15.9941C2.0878 16.1504 2 16.3623 2 16.5833V20.3333C2 20.7754 2.17559 21.1993 2.48816 21.5118C2.80072 21.8244 3.22464 22 3.66667 22H7.41667C7.63768 22 7.84964 21.9122 8.00592 21.7559C8.1622 21.5996 8.25 21.3877 8.25 21.1667C8.25 20.9457 8.1622 20.7337 8.00592 20.5774C7.84964 20.4211 7.63768 20.3333 7.41667 20.3333Z" fill="#877997"/>
  <path d="M2.83333 8.25C3.05435 8.25 3.26631 8.1622 3.42259 8.00592C3.57887 7.84964 3.66667 7.63768 3.66667 7.41667V3.875C3.66667 3.81975 3.68862 3.76676 3.72769 3.72769C3.76676 3.68862 3.81975 3.66667 3.875 3.66667H7.41667C7.63768 3.66667 7.84964 3.57887 8.00592 3.42259C8.1622 3.26631 8.25 3.05435 8.25 2.83333C8.25 2.61232 8.1622 2.40036 8.00592 2.24408C7.84964 2.0878 7.63768 2 7.41667 2H3.66667C3.22464 2 2.80072 2.17559 2.48816 2.48816C2.17559 2.80072 2 3.22464 2 3.66667V7.41667C2 7.63768 2.0878 7.84964 2.24408 8.00592C2.40036 8.1622 2.61232 8.25 2.83333 8.25Z" fill="#877997"/>
  <path d="M21.1667 15.75C20.9457 15.75 20.7337 15.8378 20.5774 15.9941C20.4211 16.1504 20.3333 16.3623 20.3333 16.5833V20.125C20.3333 20.1803 20.3114 20.2332 20.2723 20.2723C20.2332 20.3114 20.1803 20.3333 20.125 20.3333H16.5833C16.3623 20.3333 16.1504 20.4211 15.9941 20.5774C15.8378 20.7337 15.75 20.9457 15.75 21.1667C15.75 21.3877 15.8378 21.5996 15.9941 21.7559C16.1504 21.9122 16.3623 22 16.5833 22H20.3333C20.7754 22 21.1993 21.8244 21.5118 21.5118C21.8244 21.1993 22 20.7754 22 20.3333V16.5833C22 16.3623 21.9122 16.1504 21.7559 15.9941C21.5996 15.8378 21.3877 15.75 21.1667 15.75Z" fill="#877997"/>
  <path d="M20.3333 2H16.5833C16.3623 2 16.1504 2.0878 15.9941 2.24408C15.8378 2.40036 15.75 2.61232 15.75 2.83333C15.75 3.05435 15.8378 3.26631 15.9941 3.42259C16.1504 3.57887 16.3623 3.66667 16.5833 3.66667H20.125C20.1803 3.66667 20.2332 3.68862 20.2723 3.72769C20.3114 3.76676 20.3333 3.81975 20.3333 3.875V7.41667C20.3333 7.63768 20.4211 7.84964 20.5774 8.00592C20.7337 8.1622 20.9457 8.25 21.1667 8.25C21.3877 8.25 21.5996 8.1622 21.7559 8.00592C21.9122 7.84964 22 7.63768 22 7.41667V3.66667C22 3.22464 21.8244 2.80072 21.5118 2.48816C21.1993 2.17559 20.7754 2 20.3333 2Z" fill="#877997"/>
  <path d="M7.41667 20.3333H3.875C3.81975 20.3333 3.76676 20.3114 3.72769 20.2723C3.68862 20.2332 3.66667 20.1803 3.66667 20.125V16.5833C3.66667 16.3623 3.57887 16.1504 3.42259 15.9941C3.26631 15.8378 3.05435 15.75 2.83333 15.75C2.61232 15.75 2.40036 15.8378 2.24408 15.9941C2.0878 16.1504 2 16.3623 2 16.5833V20.3333C2 20.7754 2.17559 21.1993 2.48816 21.5118C2.80072 21.8244 3.22464 22 3.66667 22H7.41667C7.63768 22 7.84964 21.9122 8.00592 21.7559C8.1622 21.5996 8.25 21.3877 8.25 21.1667C8.25 20.9457 8.1622 20.7337 8.00592 20.5774C7.84964 20.4211 7.63768 20.3333 7.41667 20.3333Z" stroke="#877997"/>
  <path d="M2.83333 8.25C3.05435 8.25 3.26631 8.1622 3.42259 8.00592C3.57887 7.84964 3.66667 7.63768 3.66667 7.41667V3.875C3.66667 3.81975 3.68862 3.76676 3.72769 3.72769C3.76676 3.68862 3.81975 3.66667 3.875 3.66667H7.41667C7.63768 3.66667 7.84964 3.57887 8.00592 3.42259C8.1622 3.26631 8.25 3.05435 8.25 2.83333C8.25 2.61232 8.1622 2.40036 8.00592 2.24408C7.84964 2.0878 7.63768 2 7.41667 2H3.66667C3.22464 2 2.80072 2.17559 2.48816 2.48816C2.17559 2.80072 2 3.22464 2 3.66667V7.41667C2 7.63768 2.0878 7.84964 2.24408 8.00592C2.40036 8.1622 2.61232 8.25 2.83333 8.25Z" stroke="#877997"/>
  <path d="M21.1667 15.75C20.9457 15.75 20.7337 15.8378 20.5774 15.9941C20.4211 16.1504 20.3333 16.3623 20.3333 16.5833V20.125C20.3333 20.1803 20.3114 20.2332 20.2723 20.2723C20.2332 20.3114 20.1803 20.3333 20.125 20.3333H16.5833C16.3623 20.3333 16.1504 20.4211 15.9941 20.5774C15.8378 20.7337 15.75 20.9457 15.75 21.1667C15.75 21.3877 15.8378 21.5996 15.9941 21.7559C16.1504 21.9122 16.3623 22 16.5833 22H20.3333C20.7754 22 21.1993 21.8244 21.5118 21.5118C21.8244 21.1993 22 20.7754 22 20.3333V16.5833C22 16.3623 21.9122 16.1504 21.7559 15.9941C21.5996 15.8378 21.3877 15.75 21.1667 15.75Z" stroke="#877997"/>
  <path d="M20.3333 2H16.5833C16.3623 2 16.1504 2.0878 15.9941 2.24408C15.8378 2.40036 15.75 2.61232 15.75 2.83333C15.75 3.05435 15.8378 3.26631 15.9941 3.42259C16.1504 3.57887 16.3623 3.66667 16.5833 3.66667H20.125C20.1803 3.66667 20.2332 3.68862 20.2723 3.72769C20.3114 3.76676 20.3333 3.81975 20.3333 3.875V7.41667C20.3333 7.63768 20.4211 7.84964 20.5774 8.00592C20.7337 8.1622 20.9457 8.25 21.1667 8.25C21.3877 8.25 21.5996 8.1622 21.7559 8.00592C21.9122 7.84964 22 7.63768 22 7.41667V3.66667C22 3.22464 21.8244 2.80072 21.5118 2.48816C21.1993 2.17559 20.7754 2 20.3333 2Z" stroke="#877997"/>
  <path d="M7.66738 12.6138C7.75189 12.669 7.8465 12.7068 7.94574 12.7252C8.04498 12.7435 8.14688 12.742 8.24553 12.7207C8.34419 12.6994 8.43764 12.6588 8.52047 12.6012C8.60331 12.5435 8.67389 12.47 8.72812 12.3849C8.9187 12.0786 9.07239 11.7508 9.18599 11.4084C9.52376 11.8231 9.94967 12.1573 10.4328 12.3869C10.9159 12.6165 11.4441 12.7356 11.979 12.7356C12.5139 12.7356 13.0421 12.6165 13.5253 12.3869C14.0084 12.1573 14.4343 11.8231 14.772 11.4084C14.8856 11.7508 15.0393 12.0786 15.2299 12.3849C15.2813 12.4749 15.3504 12.5535 15.4331 12.6159C15.5158 12.6783 15.6104 12.7232 15.711 12.7479C15.8116 12.7725 15.9162 12.7765 16.0184 12.7594C16.1206 12.7424 16.2183 12.7047 16.3054 12.6487C16.3926 12.5926 16.4674 12.5195 16.5254 12.4336C16.5833 12.3477 16.6232 12.251 16.6425 12.1492C16.6618 12.0474 16.6602 11.9428 16.6378 11.8417C16.6153 11.7405 16.5725 11.645 16.512 11.561C16.1666 10.9837 15.9969 10.3183 16.0236 9.6461V8.69247C15.9357 7.68466 15.4732 6.74637 14.7273 6.06279C13.9813 5.37921 13.0062 5 11.9943 5C10.9824 5 10.0072 5.37921 9.26128 6.06279C8.51535 6.74637 8.05282 7.68466 7.965 8.69247V9.6461C7.99166 10.3183 7.82195 10.9837 7.4766 11.561C7.3639 11.7264 7.32074 11.9295 7.35643 12.1264C7.39212 12.3234 7.50379 12.4984 7.66738 12.6138ZM11.9714 11.2101C11.4634 11.2202 10.9695 11.043 10.5839 10.7123C10.1982 10.3817 9.94782 9.92066 9.88043 9.41723C9.86013 9.32639 9.87374 9.23126 9.91872 9.14976C9.9637 9.06826 10.0369 9.00601 10.1246 8.97474C10.8435 8.71936 11.4829 8.28008 11.979 7.70069C12.4751 8.26622 13.1085 8.69449 13.8181 8.94423C13.9058 8.9755 13.9791 9.03774 14.0241 9.11924C14.069 9.20074 14.0827 9.29587 14.0623 9.38671C14.0019 9.89568 13.7545 10.3641 13.3681 10.701C12.9818 11.0379 12.484 11.2193 11.9714 11.2101Z" fill="#877997"/>
  <path d="M17.1206 18C17.1797 17.9994 17.2379 17.9854 17.2908 17.9589C17.3437 17.9325 17.3899 17.8944 17.4258 17.8474C17.4598 17.7993 17.4829 17.7443 17.4935 17.6863C17.504 17.6283 17.5018 17.5688 17.4869 17.5117C17.1358 16.3293 16.412 15.2919 15.4232 14.5542C14.4345 13.8165 13.2338 13.418 12 13.418C10.7662 13.418 9.56552 13.8165 8.57677 14.5542C7.58802 15.2919 6.86419 16.3293 6.51315 17.5117C6.49824 17.5688 6.49598 17.6283 6.50652 17.6863C6.51707 17.7443 6.54017 17.7993 6.5742 17.8474C6.61014 17.8944 6.65631 17.9325 6.7092 17.9589C6.76209 17.9854 6.82032 17.9994 6.87945 18H17.1206Z" fill="#877997"/>
</svg>