<svg xmlns="http://www.w3.org/2000/svg" width="24" height="24" viewBox="0 0 24 24" fill="none">
  <path d="M15.375 9.5C15.3772 9.33491 15.4437 9.17719 15.5604 9.06045C15.6772 8.9437 15.8349 8.87716 16 8.875H17.4583C17.5136 8.875 17.5666 8.85305 17.6056 8.81398C17.6447 8.77491 17.6667 8.72192 17.6667 8.66667V7C17.6667 6.94475 17.6447 6.89176 17.6056 6.85269C17.5666 6.81362 17.5136 6.79167 17.4583 6.79167H16C15.8342 6.79167 15.6753 6.72582 15.5581 6.60861C15.4408 6.4914 15.375 6.33243 15.375 6.16667C15.375 6.00091 15.4408 5.84194 15.5581 5.72473C15.6753 5.60751 15.8342 5.54167 16 5.54167H17.275C17.3072 5.54105 17.3389 5.53325 17.3678 5.51883C17.3966 5.50442 17.4218 5.48375 17.4417 5.45833C17.4556 5.4298 17.4629 5.39844 17.4629 5.36667C17.4629 5.33489 17.4556 5.30354 17.4417 5.275C17.1604 4.33512 16.5855 3.51004 15.8011 2.92068C15.0168 2.33132 14.0644 2.00867 13.0833 2L10.5833 2C9.59659 2.00154 8.63659 2.32091 7.84558 2.9108C7.05456 3.50068 6.47462 4.32969 6.19167 5.275C6.17769 5.30354 6.17042 5.33489 6.17042 5.36667C6.17042 5.39844 6.17769 5.4298 6.19167 5.45833C6.2115 5.48375 6.23675 5.50442 6.26558 5.51883C6.29442 5.53325 6.3261 5.54105 6.35833 5.54167H11C11.1658 5.54167 11.3247 5.60751 11.4419 5.72473C11.5592 5.84194 11.625 6.00091 11.625 6.16667C11.625 6.33243 11.5592 6.4914 11.4419 6.60861C11.3247 6.72582 11.1658 6.79167 11 6.79167H6.20833C6.15308 6.79167 6.10009 6.81362 6.06102 6.85269C6.02195 6.89176 6 6.94475 6 7V8.66667C6 8.72192 6.02195 8.77491 6.06102 8.81398C6.10009 8.85305 6.15308 8.875 6.20833 8.875H11C11.1658 8.875 11.3247 8.94085 11.4419 9.05806C11.5592 9.17527 11.625 9.33424 11.625 9.5C11.625 9.66576 11.5592 9.82473 11.4419 9.94194C11.3247 10.0592 11.1658 10.125 11 10.125H6.20833C6.15308 10.125 6.10009 10.1469 6.06102 10.186C6.02195 10.2251 6 10.2781 6 10.3333V12.4167C6.00059 13.5178 6.39756 14.5818 7.11829 15.4143C7.83901 16.2467 8.83533 16.7918 9.925 16.95C9.95476 16.9554 9.98537 16.9537 10.0143 16.945C10.0433 16.9363 10.0698 16.9209 10.0917 16.9C10.1157 16.8833 10.1352 16.8608 10.1483 16.8346C10.1614 16.8084 10.1677 16.7793 10.1667 16.75V13.0417C10.1667 12.8759 10.2325 12.7169 10.3497 12.5997C10.4669 12.4825 10.6259 12.4167 10.7917 12.4167C10.9574 12.4167 11.1164 12.4825 11.2336 12.5997C11.3508 12.7169 11.4167 12.8759 11.4167 13.0417V17.7667C11.4167 17.8117 11.402 17.8556 11.375 17.8917C11.348 17.9277 11.3099 17.954 11.2667 17.9667C10.878 18.0729 10.5093 18.2418 10.175 18.4667C9.73151 18.7562 9.35392 19.1359 9.06678 19.581C8.77963 20.0261 8.58936 20.5266 8.50833 21.05C8.49163 21.1681 8.50048 21.2884 8.53429 21.4028C8.56809 21.5172 8.62605 21.623 8.70427 21.7131C8.78248 21.8031 8.87911 21.8754 8.98764 21.9249C9.09616 21.9744 9.21405 22 9.33333 22H15.1667C15.2866 22.0012 15.4055 21.9764 15.515 21.9275C15.6245 21.8785 15.7222 21.8064 15.8013 21.7162C15.8805 21.626 15.9392 21.5198 15.9735 21.4048C16.0078 21.2898 16.0168 21.1688 16 21.05C15.919 20.5266 15.7287 20.0261 15.4416 19.581C15.1544 19.1359 14.7768 18.7562 14.3333 18.4667C13.999 18.2418 13.6303 18.0729 13.2417 17.9667C13.1984 17.954 13.1604 17.9277 13.1333 17.8917C13.1063 17.8556 13.0917 17.8117 13.0917 17.7667V16.9333C15.6333 16.6083 17.675 14.8083 17.675 12.4V10.3333C17.675 10.2781 17.6531 10.2251 17.614 10.186C17.5749 10.1469 17.5219 10.125 17.4667 10.125H16C15.8349 10.1228 15.6772 10.0563 15.5604 9.93956C15.4437 9.82281 15.3772 9.66509 15.375 9.5Z" fill="#481453"/>
</svg>