<svg xmlns="http://www.w3.org/2000/svg" width="24" height="24" viewBox="0 0 24 24" fill="none">
  <path d="M12 4.1999C12 3.72251 12.1897 3.26468 12.5272 2.92711C12.8648 2.58954 13.3226 2.3999 13.8 2.3999C14.2774 2.3999 14.7352 2.58954 15.0728 2.92711C15.4104 3.26468 15.6 3.72251 15.6 4.1999V4.7999C15.6 5.11816 15.7265 5.42339 15.9515 5.64843C16.1765 5.87347 16.4818 5.9999 16.8 5.9999H20.4C20.7183 5.9999 21.0235 6.12633 21.2486 6.35137C21.4736 6.57642 21.6 6.88164 21.6 7.1999V10.7999C21.6 11.1182 21.4736 11.4234 21.2486 11.6484C21.0235 11.8735 20.7183 11.9999 20.4 11.9999H19.8C19.3226 11.9999 18.8648 12.1895 18.5272 12.5271C18.1897 12.8647 18 13.3225 18 13.7999C18 14.2773 18.1897 14.7351 18.5272 15.0727C18.8648 15.4103 19.3226 15.5999 19.8 15.5999H20.4C20.7183 15.5999 21.0235 15.7263 21.2486 15.9514C21.4736 16.1764 21.6 16.4816 21.6 16.7999V20.3999C21.6 20.7182 21.4736 21.0234 21.2486 21.2484C21.0235 21.4735 20.7183 21.5999 20.4 21.5999H16.8C16.4818 21.5999 16.1765 21.4735 15.9515 21.2484C15.7265 21.0234 15.6 20.7182 15.6 20.3999V19.7999C15.6 19.3225 15.4104 18.8647 15.0728 18.5271C14.7352 18.1895 14.2774 17.9999 13.8 17.9999C13.3226 17.9999 12.8648 18.1895 12.5272 18.5271C12.1897 18.8647 12 19.3225 12 19.7999V20.3999C12 20.7182 11.8736 21.0234 11.6486 21.2484C11.4235 21.4735 11.1183 21.5999 10.8 21.5999H7.20002C6.88176 21.5999 6.57654 21.4735 6.3515 21.2484C6.12645 21.0234 6.00002 20.7182 6.00002 20.3999V16.7999C6.00002 16.4816 5.8736 16.1764 5.64855 15.9514C5.42351 15.7263 5.11828 15.5999 4.80002 15.5999H4.20002C3.72263 15.5999 3.2648 15.4103 2.92723 15.0727C2.58967 14.7351 2.40002 14.2773 2.40002 13.7999C2.40002 13.3225 2.58967 12.8647 2.92723 12.5271C3.2648 12.1895 3.72263 11.9999 4.20002 11.9999H4.80002C5.11828 11.9999 5.42351 11.8735 5.64855 11.6484C5.8736 11.4234 6.00002 11.1182 6.00002 10.7999V7.1999C6.00002 6.88164 6.12645 6.57642 6.3515 6.35137C6.57654 6.12633 6.88176 5.9999 7.20002 5.9999H10.8C11.1183 5.9999 11.4235 5.87347 11.6486 5.64843C11.8736 5.42339 12 5.11816 12 4.7999V4.1999Z" fill="#877997"/>
</svg>