<svg width="24" height="24" viewBox="0 0 21 20" fill="none" xmlns="http://www.w3.org/2000/svg"><path d="M0.399902 2.0999C0.399902 1.78164 0.526331 1.47642 0.751374 1.25137C0.976418 1.02633 1.28164 0.899902 1.5999 0.899902H4.1835C4.46755 0.900033 4.74234 1.00092 4.959 1.18461C5.17565 1.36831 5.32012 1.6229 5.3667 1.9031L6.2547 7.2251C6.29713 7.47856 6.25707 7.73895 6.14042 7.96794C6.02377 8.19693 5.83668 8.38242 5.6067 8.4971L3.7491 9.4247C4.41523 11.0755 5.4073 12.575 6.66603 13.8338C7.92476 15.0925 9.42432 16.0846 11.0751 16.7507L12.0039 14.8931C12.1185 14.6633 12.3038 14.4764 12.5326 14.3598C12.7613 14.2431 13.0214 14.2029 13.2747 14.2451L18.5967 15.1331C18.8769 15.1797 19.1315 15.3242 19.3152 15.5408C19.4989 15.7575 19.5998 16.0323 19.5999 16.3163V18.8999C19.5999 19.2182 19.4735 19.5234 19.2484 19.7484C19.0234 19.9735 18.7182 20.0999 18.3999 20.0999H15.9999C7.3839 20.0999 0.399902 13.1159 0.399902 4.4999V2.0999Z" fill="#877997"></path></svg>
