<svg xmlns="http://www.w3.org/2000/svg" width="24" height="24" viewBox="0 0 24 24" fill="none">
  <path d="M19.6779 6.1956C20.1226 6.20092 20.5575 6.06475 20.9198 5.80676C21.2821 5.54877 21.553 5.18231 21.6935 4.76029C21.8339 4.33828 21.8366 3.88254 21.7011 3.45891C21.5656 3.03527 21.299 2.66565 20.9398 2.40341C20.5806 2.14118 20.1473 1.99991 19.7026 2C19.2578 2.00009 18.8246 2.14153 18.4655 2.40391C18.1063 2.66628 17.8399 3.03601 17.7046 3.4597C17.5693 3.8834 17.5722 4.33913 17.7128 4.76109C17.7232 4.79699 17.724 4.83497 17.7153 4.87132C17.7066 4.90766 17.6886 4.94111 17.663 4.96839L15.4491 7.18235C15.412 7.20995 15.3669 7.22485 15.3206 7.22485C15.2743 7.22485 15.2293 7.20995 15.1921 7.18235C14.5416 6.79973 13.7991 6.60191 13.0445 6.6102C12.4009 6.6102 11.7661 6.76006 11.1905 7.04791C10.6148 7.33575 10.114 7.75368 9.72785 8.2686C9.69904 8.30494 9.65928 8.33103 9.61447 8.34298C9.56966 8.35493 9.52219 8.35211 9.4791 8.33494L6.05463 6.70141C6.03719 6.69342 6.02244 6.68056 6.01214 6.66438C6.00184 6.6482 5.99644 6.62938 5.99659 6.6102C5.99939 6.13656 5.84184 5.6759 5.54956 5.30319C5.25728 4.93048 4.84748 4.66765 4.38684 4.55746C3.9262 4.44727 3.44183 4.49622 3.01254 4.69633C2.58325 4.89644 2.23431 5.23594 2.02249 5.65958C1.81068 6.08323 1.74845 6.56609 1.84595 7.0296C1.94344 7.49311 2.19491 7.90999 2.55944 8.2124C2.92397 8.51481 3.38011 8.68497 3.85363 8.69517C4.32716 8.70537 4.7902 8.55503 5.16742 8.2686C5.1999 8.24883 5.23719 8.23837 5.27521 8.23837C5.31323 8.23837 5.35052 8.24883 5.383 8.2686L8.84064 9.8275C8.88287 9.84566 8.91751 9.87789 8.93867 9.9187C8.95983 9.95952 8.96621 10.0064 8.95673 10.0514C8.92068 10.2846 8.90129 10.5202 8.89868 10.7562C8.89889 11.5168 9.1083 12.2626 9.50398 12.9121C9.53158 12.9493 9.54648 12.9944 9.54648 13.0406C9.54648 13.0869 9.53158 13.132 9.50398 13.1692L4.76942 17.8541C4.74375 17.8821 4.7103 17.9018 4.67337 17.9107C4.63644 17.9196 4.5977 17.9172 4.56212 17.9039C4.35604 17.8366 4.14045 17.803 3.92366 17.8044C3.47894 17.7991 3.04403 17.9352 2.68175 18.1932C2.31946 18.4512 2.04854 18.8177 1.9081 19.2397C1.76767 19.6617 1.76499 20.1175 1.90045 20.5411C2.03592 20.9647 2.30251 21.3344 2.66174 21.5966C3.02097 21.8588 3.45425 22.0001 3.899 22C4.34376 21.9999 4.77697 21.8585 5.1361 21.5961C5.49522 21.3337 5.76167 20.964 5.89697 20.5403C6.03226 20.1166 6.0294 19.6609 5.8888 19.2389C5.87946 19.2023 5.87991 19.1639 5.89009 19.1275C5.90028 19.0911 5.91985 19.0581 5.94684 19.0316L10.6565 14.3301C10.6918 14.3018 10.7357 14.2864 10.7809 14.2864C10.8261 14.2864 10.87 14.3018 10.9053 14.3301C11.2657 14.5423 11.6535 14.7041 12.0578 14.811C12.1031 14.8206 12.1437 14.8458 12.1724 14.8821C12.2012 14.9184 12.2164 14.9637 12.2154 15.01V17.8873C12.2142 17.9211 12.2045 17.9541 12.1871 17.9831C12.1697 18.0122 12.1452 18.0363 12.1159 18.0532C11.7002 18.2638 11.3676 18.6084 11.1718 19.0313C10.976 19.4542 10.9284 19.9307 11.0366 20.384C11.1449 20.8373 11.4028 21.2408 11.7686 21.5296C12.1344 21.8183 12.5868 21.9753 13.0528 21.9753C13.5188 21.9753 13.9713 21.8183 14.3371 21.5296C14.7029 21.2408 14.9607 20.8373 15.069 20.384C15.1773 19.9307 15.1297 19.4542 14.9339 19.0313C14.7381 18.6084 14.4055 18.2638 13.9898 18.0532C13.9543 18.0358 13.9244 18.0086 13.9039 17.9748C13.8833 17.941 13.8728 17.902 13.8737 17.8624V14.9851C13.8727 14.9388 13.8879 14.8936 13.9166 14.8572C13.9454 14.8209 13.9859 14.7958 14.0312 14.7861C14.8037 14.59 15.5032 14.1755 16.0461 13.5921C16.0764 13.5603 16.1156 13.5385 16.1586 13.5296C16.2016 13.5207 16.2462 13.5251 16.2866 13.5423L17.5055 14.131C17.5384 14.145 17.5668 14.168 17.5873 14.1973C17.6079 14.2266 17.6197 14.2611 17.6216 14.2969C17.6733 14.757 17.8781 15.1865 18.2033 15.5162C18.5284 15.8458 18.955 16.0567 19.4143 16.1147C19.8737 16.1728 20.3393 16.0748 20.7362 15.8364C21.1332 15.598 21.4385 15.2331 21.6031 14.8002C21.7677 14.3674 21.782 13.8918 21.6437 13.4499C21.5055 13.008 21.2227 12.6253 20.8408 12.3635C20.4589 12.1016 20.0001 11.9757 19.5381 12.0061C19.076 12.0364 18.6376 12.2212 18.2932 12.5307C18.2602 12.5531 18.2212 12.5652 18.1812 12.5652C18.1413 12.5652 18.1023 12.5531 18.0693 12.5307L17.1323 12.0746C17.0866 12.0561 17.0494 12.0212 17.028 11.9768C17.0065 11.9323 17.0024 11.8815 17.0163 11.8342C17.1291 11.4745 17.1878 11.1 17.1904 10.723C17.191 9.96757 16.9814 9.22684 16.5851 8.5837C16.5575 8.54653 16.5426 8.50146 16.5426 8.45517C16.5426 8.40888 16.5575 8.36381 16.5851 8.32664L18.799 6.10439C18.8263 6.07884 18.8597 6.06082 18.896 6.0521C18.9324 6.04338 18.9704 6.04425 19.0063 6.05464C19.2207 6.13877 19.4477 6.18641 19.6779 6.1956Z" fill="#877997"/>
  <path fill-rule="evenodd" clip-rule="evenodd" d="M19.6579 6.6954L19.658 6.6952C19.4421 6.68659 19.2285 6.65075 19.0222 6.58875L17.1163 8.50183C17.4929 9.1805 17.691 9.94501 17.6904 10.7234L17.6904 10.7264C17.6881 11.0647 17.6458 11.4012 17.5648 11.729L18.1412 12.0096C18.5366 11.715 19.01 11.5396 19.5053 11.5071C20.0793 11.4695 20.6492 11.6258 21.1236 11.9511C21.598 12.2764 21.9492 12.7517 22.1209 13.3006C22.2927 13.8496 22.2749 14.4403 22.0704 14.978C21.866 15.5156 21.4868 15.9689 20.9937 16.265C20.5006 16.5612 19.9223 16.6829 19.3516 16.6108C18.781 16.5387 18.2512 16.2768 17.8473 15.8672C17.4816 15.4964 17.2383 15.024 17.1479 14.5136L16.2627 14.086C15.7319 14.6062 15.084 14.9914 14.3737 15.2093V17.6943C14.816 17.9588 15.1699 18.351 15.3876 18.8212C15.6306 19.3461 15.6897 19.9376 15.5553 20.5002C15.4209 21.0628 15.1009 21.5637 14.6468 21.922C14.1928 22.2804 13.6313 22.4753 13.0528 22.4753C12.4744 22.4753 11.9129 22.2804 11.4588 21.922C11.0048 21.5637 10.6847 21.0628 10.5503 20.5002C10.4159 19.9376 10.475 19.3461 10.718 18.8212C10.933 18.3569 11.2808 17.9687 11.7154 17.7043V15.2325C11.4097 15.1372 11.1137 15.0131 10.8314 14.8619L6.4178 19.268C6.53571 19.7364 6.52098 20.2298 6.37327 20.6924C6.20573 21.2171 5.87578 21.6749 5.43106 21.9998C4.98634 22.3247 4.44986 22.4999 3.8991 22.5C3.34834 22.5001 2.81179 22.3252 2.36694 22.0004C1.92209 21.6757 1.59196 21.218 1.42421 20.6934C1.25646 20.1688 1.25978 19.6044 1.43368 19.0818C1.60759 18.5592 1.94308 18.1054 2.39171 17.786C2.83911 17.4674 3.37595 17.2988 3.92509 17.3044C4.13251 17.3034 4.33903 17.3281 4.53995 17.3778L8.97247 12.9917C8.59679 12.3077 8.3989 11.539 8.39868 10.7563L8.39868 10.7507H8.39872C8.40077 10.5641 8.41237 10.3777 8.43345 10.1924L5.30524 8.78201C4.87114 9.06155 4.36209 9.20624 3.84286 9.19505C3.25647 9.18242 2.69161 8.97171 2.24019 8.59722C1.78878 8.22273 1.47738 7.70649 1.35665 7.13252C1.23592 6.55854 1.31298 5.9606 1.57528 5.43598C1.83758 4.91137 2.26968 4.49095 2.80129 4.24314C3.3329 3.99534 3.93273 3.93473 4.50316 4.07118C5.0736 4.20763 5.58107 4.53311 5.94301 4.99465C6.2511 5.38753 6.43831 5.85931 6.48505 6.35276L9.47708 7.78C9.88657 7.28913 10.3936 6.88735 10.9668 6.6007C11.6111 6.27854 12.3215 6.11063 13.0418 6.1102C13.8196 6.10211 14.5858 6.28943 15.2708 6.65357L17.1855 4.73882C17.0657 4.26838 17.0799 3.77243 17.2283 3.30761C17.3958 2.78294 17.7258 2.32509 18.1705 2.00018C18.6152 1.67527 19.1517 1.50011 19.7025 1.5C20.2532 1.49989 20.7898 1.67483 21.2346 1.99957C21.6795 2.3243 22.0096 2.78202 22.1774 3.30662C22.3451 3.83123 22.3418 4.39557 22.1679 4.91816C21.994 5.44076 21.6585 5.89456 21.2098 6.21405C20.7612 6.53353 20.2226 6.70215 19.6719 6.69557L19.6579 6.6954ZM17.663 4.96839L15.4491 7.18235C15.412 7.20995 15.3669 7.22485 15.3206 7.22485C15.2743 7.22485 15.2293 7.20995 15.1921 7.18235C14.5416 6.79973 13.7991 6.60191 13.0445 6.6102C12.4009 6.6102 11.7661 6.76006 11.1905 7.04791C10.6148 7.33575 10.114 7.75368 9.72785 8.2686C9.69904 8.30494 9.65928 8.33103 9.61447 8.34298C9.56966 8.35493 9.52219 8.35211 9.4791 8.33494L6.05463 6.70141C6.03719 6.69342 6.02244 6.68056 6.01214 6.66438C6.00184 6.6482 5.99644 6.62938 5.99659 6.6102C5.99939 6.13656 5.84184 5.6759 5.54956 5.30319C5.25728 4.93048 4.84748 4.66765 4.38684 4.55746C3.9262 4.44727 3.44183 4.49622 3.01254 4.69633C2.58325 4.89644 2.23431 5.23594 2.02249 5.65958C1.81068 6.08323 1.74845 6.56609 1.84595 7.0296C1.94344 7.49311 2.19491 7.90999 2.55944 8.2124C2.92397 8.51481 3.38011 8.68497 3.85363 8.69517C4.32716 8.70537 4.7902 8.55503 5.16742 8.2686C5.1999 8.24883 5.23719 8.23837 5.27521 8.23837C5.31323 8.23837 5.35052 8.24883 5.383 8.2686L8.84064 9.8275C8.88287 9.84566 8.91751 9.87789 8.93867 9.9187C8.95983 9.95952 8.96621 10.0064 8.95673 10.0514C8.92068 10.2846 8.90129 10.5202 8.89868 10.7562C8.89889 11.5168 9.1083 12.2626 9.50398 12.9121C9.53158 12.9493 9.54648 12.9944 9.54648 13.0406C9.54648 13.0869 9.53158 13.132 9.50398 13.1692L4.76942 17.8541C4.74375 17.8821 4.7103 17.9018 4.67337 17.9107C4.63644 17.9196 4.5977 17.9172 4.56212 17.9039C4.35604 17.8366 4.14045 17.803 3.92366 17.8044C3.47894 17.7991 3.04403 17.9352 2.68175 18.1932C2.31946 18.4512 2.04854 18.8177 1.9081 19.2397C1.76767 19.6617 1.76499 20.1175 1.90045 20.5411C2.03592 20.9647 2.30251 21.3344 2.66174 21.5966C3.02097 21.8588 3.45425 22.0001 3.899 22C4.34376 21.9999 4.77697 21.8585 5.1361 21.5961C5.49522 21.3337 5.76167 20.964 5.89697 20.5403C6.03226 20.1166 6.0294 19.6609 5.8888 19.2389C5.87946 19.2023 5.87991 19.1639 5.89009 19.1275C5.90028 19.0911 5.91985 19.0581 5.94684 19.0316L10.6565 14.3301C10.6918 14.3018 10.7357 14.2864 10.7809 14.2864C10.8261 14.2864 10.87 14.3018 10.9053 14.3301C11.2657 14.5423 11.6535 14.7041 12.0578 14.811C12.1031 14.8206 12.1437 14.8458 12.1724 14.8821C12.2012 14.9184 12.2164 14.9637 12.2154 15.01V17.8873C12.2142 17.9211 12.2045 17.9541 12.1871 17.9831C12.1697 18.0122 12.1452 18.0363 12.1159 18.0532C11.7002 18.2638 11.3676 18.6084 11.1718 19.0313C10.976 19.4542 10.9284 19.9307 11.0366 20.384C11.1449 20.8373 11.4028 21.2408 11.7686 21.5296C12.1344 21.8183 12.5868 21.9753 13.0528 21.9753C13.5188 21.9753 13.9713 21.8183 14.3371 21.5296C14.7029 21.2408 14.9607 20.8373 15.069 20.384C15.1773 19.9307 15.1297 19.4542 14.9339 19.0313C14.7381 18.6084 14.4055 18.2638 13.9898 18.0532C13.9543 18.0358 13.9244 18.0086 13.9039 17.9748C13.8833 17.941 13.8728 17.902 13.8737 17.8624V14.9851C13.8727 14.9388 13.8879 14.8936 13.9166 14.8572C13.9454 14.8209 13.9859 14.7958 14.0312 14.7861C14.8037 14.59 15.5032 14.1755 16.0461 13.5921C16.0764 13.5603 16.1156 13.5385 16.1586 13.5296C16.2016 13.5207 16.2462 13.5251 16.2866 13.5423L17.5055 14.131C17.5384 14.145 17.5668 14.168 17.5873 14.1973C17.6079 14.2266 17.6197 14.2611 17.6216 14.2969C17.6733 14.757 17.8781 15.1865 18.2033 15.5162C18.5284 15.8458 18.955 16.0567 19.4143 16.1147C19.8737 16.1728 20.3393 16.0748 20.7362 15.8364C21.1332 15.598 21.4385 15.2331 21.6031 14.8002C21.7677 14.3674 21.782 13.8918 21.6437 13.4499C21.5055 13.008 21.2227 12.6253 20.8408 12.3635C20.4589 12.1016 20.0001 11.9757 19.5381 12.0061C19.076 12.0364 18.6376 12.2212 18.2932 12.5307C18.2602 12.5531 18.2212 12.5652 18.1812 12.5652C18.1413 12.5652 18.1023 12.5531 18.0693 12.5307L17.1323 12.0746C17.0866 12.0561 17.0494 12.0212 17.028 11.9768C17.0065 11.9323 17.0024 11.8815 17.0163 11.8342C17.1291 11.4745 17.1878 11.1 17.1904 10.723C17.191 9.96757 16.9814 9.22684 16.5851 8.5837C16.5575 8.54653 16.5426 8.50146 16.5426 8.45517C16.5426 8.40888 16.5575 8.36381 16.5851 8.32664L18.799 6.10439C18.8263 6.07884 18.8597 6.06082 18.896 6.0521C18.9324 6.04338 18.9704 6.04425 19.0063 6.05464C19.2207 6.13877 19.4477 6.18641 19.6779 6.1956C20.1226 6.20092 20.5575 6.06475 20.9198 5.80676C21.2821 5.54877 21.553 5.18231 21.6935 4.76029C21.8339 4.33828 21.8366 3.88254 21.7011 3.45891C21.5656 3.03527 21.299 2.66565 20.9398 2.40341C20.5806 2.14118 20.1473 1.99991 19.7026 2C19.2578 2.00009 18.8246 2.14153 18.4655 2.40391C18.1063 2.66628 17.8399 3.03601 17.7046 3.4597C17.5693 3.8834 17.5722 4.33913 17.7128 4.76109C17.7232 4.79699 17.724 4.83497 17.7153 4.87132C17.7066 4.90766 17.6886 4.94111 17.663 4.96839Z" fill="#877997"/>
</svg>