<svg xmlns="http://www.w3.org/2000/svg" width="24" height="24" viewBox="0 0 24 24" fill="none">
  <path d="M22.41 4.5C22.41 3.96957 22.1993 3.46086 21.8242 3.08579C21.4491 2.71071 20.9404 2.5 20.41 2.5H3.40999C2.87956 2.5 2.37085 2.71071 1.99578 3.08579C1.62071 3.46086 1.40999 3.96957 1.40999 4.5V17.18C1.40999 17.2649 1.37628 17.3463 1.31627 17.4063C1.25626 17.4663 1.17486 17.5 1.08999 17.5C0.944772 17.5012 0.801559 17.5341 0.670312 17.5962C0.539065 17.6584 0.422934 17.7484 0.329994 17.86C0.23645 17.969 0.167487 18.0969 0.127798 18.2349C0.088109 18.373 0.078626 18.518 0.0999941 18.66L0.229994 19.41C0.325007 19.9938 0.624717 20.5247 1.07546 20.9076C1.5262 21.2906 2.09854 21.5006 2.68999 21.5H21.31C21.9014 21.5006 22.4738 21.2906 22.9245 20.9076C23.3753 20.5247 23.675 19.9938 23.77 19.41L23.9 18.67C23.9229 18.5264 23.9141 18.3795 23.8744 18.2396C23.8347 18.0997 23.7649 17.9702 23.67 17.86C23.5771 17.7484 23.4609 17.6584 23.3297 17.5962C23.1984 17.5341 23.0552 17.5012 22.91 17.5C22.7774 17.5 22.6502 17.4473 22.5564 17.3536C22.4627 17.2598 22.41 17.1326 22.41 17V4.5ZM20.41 17C20.41 17.1326 20.3573 17.2598 20.2635 17.3536C20.1698 17.4473 20.0426 17.5 19.91 17.5H3.90999C3.77739 17.5 3.65021 17.4473 3.55644 17.3536C3.46267 17.2598 3.40999 17.1326 3.40999 17V5C3.40999 4.86739 3.46267 4.74021 3.55644 4.64645C3.65021 4.55268 3.77739 4.5 3.90999 4.5H19.91C20.0426 4.5 20.1698 4.55268 20.2635 4.64645C20.3573 4.74021 20.41 4.86739 20.41 5V17Z" fill="#877997"/>
  <path d="M7.42008 14.8907C7.40543 14.9638 7.40702 15.0393 7.42472 15.1118C7.44243 15.1843 7.47582 15.252 7.52255 15.3102C7.56928 15.3683 7.6282 15.4155 7.69515 15.4485C7.76211 15.4814 7.83548 15.4992 7.91008 15.5007H15.4401C15.5151 15.4996 15.5889 15.482 15.6563 15.4492C15.7237 15.4164 15.783 15.3691 15.8301 15.3107C15.876 15.2521 15.908 15.1838 15.9235 15.1111C15.9391 15.0383 15.938 14.9629 15.9201 14.8907C15.76 14.1635 15.4142 13.4902 14.9165 12.9364C14.4188 12.3826 13.7861 11.9672 13.0801 11.7307C13.0351 11.7163 12.9956 11.6885 12.9669 11.6509C12.9383 11.6133 12.922 11.5679 12.9201 11.5207C12.9139 11.4733 12.922 11.4251 12.9434 11.3823C12.9648 11.3396 12.9984 11.3042 13.0401 11.2807C13.5979 10.9763 14.0385 10.4947 14.2922 9.91213C14.5459 9.32951 14.5984 8.67898 14.4413 8.06322C14.2843 7.44746 13.9266 6.90156 13.4248 6.51168C12.9229 6.1218 12.3056 5.91016 11.6701 5.91016C11.0346 5.91016 10.4172 6.1218 9.9154 6.51168C9.41358 6.90156 9.0559 7.44746 8.89882 8.06322C8.74175 8.67898 8.79422 9.32951 9.04796 9.91213C9.3017 10.4947 9.74225 10.9763 10.3001 11.2807C10.3445 11.3016 10.3811 11.3361 10.4045 11.3793C10.4279 11.4225 10.4369 11.472 10.4301 11.5207C10.4248 11.5683 10.406 11.6134 10.3759 11.6506C10.3458 11.6878 10.3056 11.7156 10.2601 11.7307C9.55602 11.9706 8.92525 12.3871 8.42804 12.9404C7.93083 13.4936 7.58379 14.1651 7.42008 14.8907Z" fill="#877997"/>
</svg>
