<svg width="2rem" height="2rem" viewBox="0 0 24 24" fill="none" xmlns="http://www.w3.org/2000/svg"><path fill-rule="evenodd" clip-rule="evenodd" d="M18.7886 18.7881C20.589 16.9878 21.6004 14.546 21.6004 11.9999C21.6004 9.45382 20.589 7.01203 18.7886 5.21168C16.9883 3.41133 14.5465 2.3999 12.0004 2.3999C9.45431 2.3999 7.01252 3.41133 5.21217 5.21168C3.41182 7.01203 2.40039 9.45382 2.40039 11.9999C2.40039 14.546 3.41182 16.9878 5.21217 18.7881C7.01252 20.5885 9.45431 21.5999 12.0004 21.5999C14.5465 21.5999 16.9883 20.5885 18.7886 18.7881ZM13.0485 17.4485C13.2736 17.2235 13.4 16.9183 13.4 16.6C13.4 16.2817 13.2736 15.9765 13.0485 15.7515C12.8235 15.5264 12.5183 15.4 12.2 15.4C11.8817 15.4 11.5765 15.5264 11.3515 15.7515C11.1264 15.9765 11 16.2817 11 16.6C11 16.9183 11.1264 17.2235 11.3515 17.4485C11.5765 17.6736 11.8817 17.8 12.2 17.8C12.5183 17.8 12.8235 17.6736 13.0485 17.4485ZM13.0485 7.35147C13.2736 7.57652 13.4 7.88174 13.4 8.2V11.8C13.4 12.1183 13.2736 12.4235 13.0485 12.6485C12.8235 12.8736 12.5183 13 12.2 13C11.8817 13 11.5765 12.8736 11.3515 12.6485C11.1264 12.4235 11 12.1183 11 11.8V8.2C11 7.88174 11.1264 7.57652 11.3515 7.35147C11.5765 7.12643 11.8817 7 12.2 7C12.5183 7 12.8235 7.12643 13.0485 7.35147Z" fill="secondary.red" class="sc-beqWaB sc-gueYoa sc-dmqHEX cEtBaN bwKptr"></path></svg>
